<svg width="24" height="15" viewBox="0 0 24 15" fill="none" xmlns="http://www.w3.org/2000/svg">
<path d="M22.125 0H1.125C0.826631 0 0.540483 0.118526 0.329505 0.329505C0.118526 0.540483 0 0.826631 0 1.125V13.125C0 13.4234 0.118526 13.7095 0.329505 13.9205C0.540483 14.1315 0.826631 14.25 1.125 14.25H22.125C22.4234 14.25 22.7095 14.1315 22.9205 13.9205C23.1315 13.7095 23.25 13.4234 23.25 13.125V1.125C23.25 0.826631 23.1315 0.540483 22.9205 0.329505C22.7095 0.118526 22.4234 0 22.125 0ZM16.6134 12H6.63656C6.41396 10.9202 5.87987 9.9293 5.10029 9.14971C4.3207 8.37013 3.32979 7.83604 2.25 7.61344V6.63656C3.32979 6.41396 4.3207 5.87987 5.10029 5.10029C5.87987 4.3207 6.41396 3.32979 6.63656 2.25H16.6134C16.836 3.32979 17.3701 4.3207 18.1497 5.10029C18.9293 5.87987 19.9202 6.41396 21 6.63656V7.61344C19.9202 7.83604 18.9293 8.37013 18.1497 9.14971C17.3701 9.9293 16.836 10.9202 16.6134 12ZM21 4.30688C20.5262 4.13774 20.0959 3.86548 19.7402 3.50977C19.3845 3.15406 19.1123 2.72377 18.9431 2.25H21V4.30688ZM4.30687 2.25C4.13774 2.72377 3.86548 3.15406 3.50977 3.50977C3.15406 3.86548 2.72377 4.13774 2.25 4.30688V2.25H4.30687ZM2.25 9.94312C2.72377 10.1123 3.15406 10.3845 3.50977 10.7402C3.86548 11.0959 4.13774 11.5262 4.30687 12H2.25V9.94312ZM18.9431 12C19.1123 11.5262 19.3845 11.0959 19.7402 10.7402C20.0959 10.3845 20.5262 10.1123 21 9.94312V12H18.9431ZM11.625 3.375C10.8833 3.375 10.1583 3.59493 9.54161 4.00699C8.92493 4.41904 8.44428 5.00471 8.16045 5.68994C7.87662 6.37516 7.80236 7.12916 7.94705 7.85659C8.09175 8.58402 8.4489 9.2522 8.97335 9.77665C9.4978 10.3011 10.166 10.6583 10.8934 10.8029C11.6208 10.9476 12.3748 10.8734 13.0601 10.5895C13.7453 10.3057 14.331 9.82507 14.743 9.20839C15.1551 8.5917 15.375 7.86668 15.375 7.125C15.375 6.13044 14.9799 5.17661 14.2767 4.47335C13.5734 3.77009 12.6196 3.375 11.625 3.375ZM11.625 8.625C11.3283 8.625 11.0383 8.53703 10.7916 8.3722C10.545 8.20738 10.3527 7.97311 10.2392 7.69903C10.1256 7.42494 10.0959 7.12334 10.1538 6.83236C10.2117 6.54139 10.3546 6.27412 10.5643 6.06434C10.7741 5.85456 11.0414 5.7117 11.3324 5.65382C11.6233 5.59594 11.9249 5.62565 12.199 5.73918C12.4731 5.85271 12.7074 6.04497 12.8722 6.29165C13.037 6.53832 13.125 6.82833 13.125 7.125C13.125 7.52282 12.967 7.90436 12.6857 8.18566C12.4044 8.46696 12.0228 8.625 11.625 8.625Z" fill="#1A1A1A"/>
</svg>
