<svg width="21" height="21" viewBox="0 0 21 21" fill="none" xmlns="http://www.w3.org/2000/svg">
<path d="M10.125 0C8.12247 0 6.1649 0.593821 4.49986 1.70637C2.83481 2.81892 1.53706 4.40023 0.770724 6.25033C0.00438702 8.10043 -0.196122 10.1362 0.194554 12.1003C0.585229 14.0643 1.54954 15.8685 2.96555 17.2845C4.38156 18.7005 6.18566 19.6648 8.14971 20.0555C10.1138 20.4461 12.1496 20.2456 13.9997 19.4793C15.8498 18.7129 17.4311 17.4152 18.5436 15.7501C19.6562 14.0851 20.25 12.1275 20.25 10.125C20.247 7.4406 19.1793 4.86699 17.2812 2.96883C15.383 1.07067 12.8094 0.00297771 10.125 0ZM11.25 17.9184V12.75H13.125C13.4234 12.75 13.7095 12.6315 13.9205 12.4205C14.1315 12.2095 14.25 11.9234 14.25 11.625C14.25 11.3266 14.1315 11.0405 13.9205 10.8295C13.7095 10.6185 13.4234 10.5 13.125 10.5H11.25V8.625C11.25 8.32663 11.3685 8.04048 11.5795 7.8295C11.7905 7.61853 12.0766 7.5 12.375 7.5H13.875C14.1734 7.5 14.4595 7.38147 14.6705 7.1705C14.8815 6.95952 15 6.67337 15 6.375C15 6.07663 14.8815 5.79048 14.6705 5.5795C14.4595 5.36853 14.1734 5.25 13.875 5.25H12.375C11.4799 5.25 10.6215 5.60558 9.98852 6.23851C9.35558 6.87145 9 7.72989 9 8.625V10.5H7.125C6.82664 10.5 6.54049 10.6185 6.32951 10.8295C6.11853 11.0405 6 11.3266 6 11.625C6 11.9234 6.11853 12.2095 6.32951 12.4205C6.54049 12.6315 6.82664 12.75 7.125 12.75H9V17.9184C7.02947 17.634 5.2398 16.6138 3.99117 15.063C2.74255 13.5123 2.12765 11.5461 2.27022 9.56026C2.4128 7.57442 3.30227 5.71628 4.75963 4.35981C6.21698 3.00333 8.13405 2.24921 10.125 2.24921C12.116 2.24921 14.033 3.00333 15.4904 4.35981C16.9477 5.71628 17.8372 7.57442 17.9798 9.56026C18.1224 11.5461 17.5075 13.5123 16.2588 15.063C15.0102 16.6138 13.2205 17.634 11.25 17.9184Z" fill="#1A1A1A"/>
</svg>
