<svg width="21" height="21" viewBox="0 0 21 21" fill="none" xmlns="http://www.w3.org/2000/svg">
<path d="M10.125 5.625C9.23498 5.625 8.36495 5.88892 7.62493 6.38339C6.88491 6.87785 6.30814 7.58066 5.96754 8.40292C5.62695 9.22519 5.53783 10.13 5.71147 11.0029C5.8851 11.8758 6.31368 12.6776 6.94302 13.307C7.57236 13.9363 8.37418 14.3649 9.24709 14.5385C10.12 14.7122 11.0248 14.6231 11.8471 14.2825C12.6693 13.9419 13.3721 13.3651 13.8666 12.6251C14.3611 11.885 14.625 11.015 14.625 10.125C14.6238 8.93191 14.1493 7.78803 13.3056 6.94439C12.462 6.10075 11.3181 5.62624 10.125 5.625ZM10.125 12.375C9.67999 12.375 9.24498 12.243 8.87497 11.9958C8.50496 11.7486 8.21657 11.3972 8.04627 10.986C7.87597 10.5749 7.83142 10.1225 7.91823 9.68605C8.00505 9.24959 8.21934 8.84868 8.53401 8.53401C8.84868 8.21934 9.24959 8.00505 9.68605 7.91823C10.1225 7.83142 10.5749 7.87597 10.986 8.04627C11.3972 8.21657 11.7486 8.50496 11.9958 8.87497C12.243 9.24498 12.375 9.67999 12.375 10.125C12.375 10.7217 12.1379 11.294 11.716 11.716C11.294 12.1379 10.7217 12.375 10.125 12.375ZM14.625 0H5.625C4.13369 0.00173682 2.70396 0.594927 1.64944 1.64944C0.594927 2.70396 0.00173682 4.13369 0 5.625V14.625C0.00173682 16.1163 0.594927 17.546 1.64944 18.6006C2.70396 19.6551 4.13369 20.2483 5.625 20.25H14.625C16.1163 20.2483 17.546 19.6551 18.6006 18.6006C19.6551 17.546 20.2483 16.1163 20.25 14.625V5.625C20.2483 4.13369 19.6551 2.70396 18.6006 1.64944C17.546 0.594927 16.1163 0.00173682 14.625 0ZM18 14.625C18 15.5201 17.6444 16.3785 17.0115 17.0115C16.3785 17.6444 15.5201 18 14.625 18H5.625C4.72989 18 3.87145 17.6444 3.23851 17.0115C2.60558 16.3785 2.25 15.5201 2.25 14.625V5.625C2.25 4.72989 2.60558 3.87145 3.23851 3.23851C3.87145 2.60558 4.72989 2.25 5.625 2.25H14.625C15.5201 2.25 16.3785 2.60558 17.0115 3.23851C17.6444 3.87145 18 4.72989 18 5.625V14.625ZM16.5 5.25C16.5 5.54667 16.412 5.83668 16.2472 6.08335C16.0824 6.33003 15.8481 6.52229 15.574 6.63582C15.2999 6.74935 14.9983 6.77906 14.7074 6.72118C14.4164 6.6633 14.1491 6.52044 13.9393 6.31066C13.7296 6.10088 13.5867 5.83361 13.5288 5.54264C13.4709 5.25166 13.5006 4.95006 13.6142 4.67597C13.7277 4.40189 13.92 4.16762 14.1666 4.0028C14.4133 3.83797 14.7033 3.75 15 3.75C15.3978 3.75 15.7794 3.90804 16.0607 4.18934C16.342 4.47064 16.5 4.85218 16.5 5.25Z" fill="#1A1A1A"/>
</svg>
