<svg width="18" height="22" viewBox="0 0 18 22" fill="none" xmlns="http://www.w3.org/2000/svg">
<path d="M8.625 4.5C7.80915 4.5 7.01163 4.74193 6.33327 5.19519C5.65492 5.64845 5.12621 6.29269 4.814 7.04643C4.50179 7.80018 4.4201 8.62958 4.57926 9.42975C4.73843 10.2299 5.13129 10.9649 5.70818 11.5418C6.28508 12.1187 7.02008 12.5116 7.82025 12.6707C8.62042 12.8299 9.44982 12.7482 10.2036 12.436C10.9573 12.1238 11.6016 11.5951 12.0548 10.9167C12.5081 10.2384 12.75 9.44085 12.75 8.625C12.7488 7.53136 12.3138 6.48287 11.5404 5.70955C10.7671 4.93624 9.71864 4.50124 8.625 4.5ZM8.625 10.5C8.25416 10.5 7.89165 10.39 7.58331 10.184C7.27496 9.97798 7.03464 9.68514 6.89273 9.34253C6.75081 8.99992 6.71368 8.62292 6.78603 8.2592C6.85837 7.89549 7.03695 7.5614 7.29917 7.29917C7.5614 7.03695 7.89549 6.85837 8.2592 6.78603C8.62292 6.71368 8.99992 6.75081 9.34253 6.89272C9.68514 7.03464 9.97798 7.27496 10.184 7.58331C10.39 7.89165 10.5 8.25416 10.5 8.625C10.5 9.12228 10.3025 9.59919 9.95082 9.95082C9.59919 10.3025 9.12228 10.5 8.625 10.5ZM8.625 0C6.33827 0.00248153 4.14591 0.911981 2.52894 2.52894C0.911981 4.14591 0.00248153 6.33827 0 8.625C0 15.8775 7.65375 21.3187 7.98 21.5466C8.16907 21.6789 8.39424 21.7498 8.625 21.7498C8.85576 21.7498 9.08094 21.6789 9.27 21.5466C10.7196 20.4782 12.0459 19.2519 13.2244 17.8903C15.8578 14.8659 17.25 11.6597 17.25 8.625C17.2475 6.33827 16.338 4.14591 14.7211 2.52894C13.1041 0.911981 10.9117 0.00248153 8.625 0ZM11.5594 16.3791C10.6655 17.4058 9.68364 18.3526 8.625 19.2084C7.56636 18.3526 6.5845 17.4058 5.69062 16.3791C4.125 14.5659 2.25 11.7478 2.25 8.625C2.25 6.93424 2.92165 5.31274 4.11719 4.11719C5.31274 2.92165 6.93425 2.25 8.625 2.25C10.3158 2.25 11.9373 2.92165 13.1328 4.11719C14.3284 5.31274 15 6.93424 15 8.625C15 11.7478 13.125 14.5659 11.5594 16.3791Z" fill="#999999"/>
</svg>
