<svg width="19" height="19" viewBox="0 0 19 19" fill="none" xmlns="http://www.w3.org/2000/svg">
<path d="M10.5014 17.625C10.5014 17.9234 10.6199 18.2095 10.8309 18.4205C11.0418 18.6315 11.328 18.75 11.6264 18.75H16.8764C17.3736 18.75 17.8506 18.5525 18.2022 18.2008C18.5538 17.8492 18.7514 17.3723 18.7514 16.875V1.875C18.7514 1.37772 18.5538 0.900805 18.2022 0.549175C17.8506 0.197544 17.3736 0 16.8764 0H11.6264C11.328 0 11.0418 0.118526 10.8309 0.329505C10.6199 0.540483 10.5014 0.826631 10.5014 1.125C10.5014 1.42337 10.6199 1.70952 10.8309 1.9205C11.0418 2.13147 11.328 2.25 11.6264 2.25H16.5014V16.5H11.6264C11.328 16.5 11.0418 16.6185 10.8309 16.8295C10.6199 17.0405 10.5014 17.3266 10.5014 17.625ZM0.330418 8.57906L4.08042 4.82906C4.29176 4.61772 4.57841 4.49899 4.87729 4.49899C5.17618 4.49899 5.46282 4.61772 5.67417 4.82906C5.88551 5.04041 6.00424 5.32705 6.00424 5.62594C6.00424 5.92482 5.88551 6.21147 5.67417 6.42281L3.84511 8.25H11.6264C11.9247 8.25 12.2109 8.36853 12.4219 8.5795C12.6328 8.79048 12.7514 9.07663 12.7514 9.375C12.7514 9.67337 12.6328 9.95952 12.4219 10.1705C12.2109 10.3815 11.9247 10.5 11.6264 10.5H3.84511L5.67511 12.3291C5.88645 12.5404 6.00518 12.8271 6.00518 13.1259C6.00518 13.4248 5.88645 13.7115 5.67511 13.9228C5.46376 14.1342 5.17712 14.2529 4.87823 14.2529C4.57935 14.2529 4.2927 14.1342 4.08136 13.9228L0.331356 10.1728C0.226416 10.0684 0.143126 9.94421 0.0862637 9.8075C0.0294018 9.67079 8.7738e-05 9.5242 0 9.37613C-8.7738e-05 9.22807 0.0290565 9.08144 0.0857563 8.94466C0.142456 8.80788 0.225599 8.68364 0.330418 8.57906Z" fill="#ED1010"/>
</svg>
