<svg width="22" height="14" viewBox="0 0 22 14" fill="none" xmlns="http://www.w3.org/2000/svg">
<path d="M10.9967 1.45384C11.8064 2.08939 12.4608 2.9008 12.9106 3.82665C13.3604 4.7525 13.5936 5.76853 13.5927 6.79784C13.5935 7.82724 13.3601 8.84332 12.9101 9.76918C12.4602 10.695 11.8055 11.5064 10.9957 12.1418C10.186 11.5063 9.53153 10.6949 9.08177 9.76904C8.63202 8.84319 8.39877 7.82715 8.39968 6.79784C8.39877 5.76853 8.63202 4.7525 9.08177 3.82665C9.53153 2.9008 10.186 2.08939 10.9957 1.45384H10.9967ZM10.1267 0.871843C9.26982 1.60351 8.58203 2.5125 8.11086 3.536C7.63968 4.5595 7.39635 5.6731 7.39769 6.79984C7.39645 7.92618 7.63974 9.03937 8.11073 10.0625C8.58173 11.0856 9.26921 11.9943 10.1257 12.7258C9.09107 13.3066 7.92246 13.6065 6.73602 13.5957C5.54958 13.5849 4.38664 13.2637 3.36279 12.6642C2.33893 12.0646 1.48983 11.2075 0.899886 10.1781C0.309942 9.14867 -0.000300057 7.98277 2.17764e-07 6.79628C0.000300493 5.60979 0.311132 4.44405 0.901598 3.41492C1.49206 2.38579 2.3416 1.52913 3.36575 0.930079C4.38991 0.331033 5.55302 0.0104687 6.73946 0.000252091C7.92591 -0.00996452 9.09436 0.290522 10.1287 0.871843H10.1267ZM11.8687 12.7258C12.7251 11.9943 13.4126 11.0856 13.8835 10.0625C14.3545 9.03934 14.5978 7.92617 14.5967 6.79984C14.5979 5.67302 14.3544 4.55937 13.8831 3.53587C13.4117 2.51236 12.7237 1.60342 11.8667 0.871843C12.901 0.290522 14.0695 -0.00996452 15.2559 0.000252091C16.4424 0.0104687 17.6055 0.331033 18.6296 0.930079C19.6538 1.52913 20.5033 2.38579 21.0938 3.41492C21.6842 4.44405 21.9951 5.60979 21.9954 6.79628C21.9957 7.98277 21.6854 9.14867 21.0955 10.1781C20.5055 11.2075 19.6564 12.0646 18.6326 12.6642C17.6087 13.2637 16.4458 13.5849 15.2593 13.5957C14.0729 13.6065 12.9033 13.3066 11.8687 12.7258Z" fill="#1A1A1A"/>
</svg>
