<svg width="324" height="213" viewBox="0 0 324 213" fill="none" xmlns="http://www.w3.org/2000/svg">
<path d="M21.184 47.488H4.86399V1.536H21.184C35.776 1.536 44.608 10.88 44.608 24.256C44.608 37.632 35.456 47.488 21.184 47.488ZM14.592 9.92001V39.104H20.672C29.824 39.104 34.624 33.792 34.624 24.256C34.624 15.104 29.824 9.92001 20.672 9.92001H14.592ZM62.244 48.064C52.004 48.064 45.156 40.96 45.156 30.272C45.156 20.096 52.26 12.672 62.116 12.672C72.932 12.672 80.1 21.44 78.5 32.576H54.244C54.82 38.144 57.508 41.216 62.052 41.216C65.956 41.216 68.58 39.296 69.604 35.904H78.436C76.516 43.648 70.564 48.064 62.244 48.064ZM61.924 19.2C57.764 19.2 55.14 21.888 54.372 26.944H69.092C68.836 22.208 66.148 19.2 61.924 19.2ZM116.848 5.376C116.848 8.38401 114.416 10.624 110.896 10.624C107.376 10.624 104.944 8.38401 104.944 5.376C104.944 2.24001 107.376 3.8147e-06 110.896 3.8147e-06C114.416 3.8147e-06 116.848 2.24001 116.848 5.376ZM93.1045 47.488H84.2725V20.928H77.3605V13.312H84.2725V11.456C84.2725 4.672 87.9205 0.832005 95.0245 0.832005C97.2005 0.832005 99.0565 1.216 100.528 1.856V8.896C99.5685 8.512 98.2885 8.32 97.1365 8.32C94.7045 8.32 93.1045 9.28001 93.1045 11.648V13.312H102V20.928H93.1045V47.488ZM115.376 47.488H106.544V13.312H115.376V47.488ZM129.079 28.864V47.488H120.183V13.312H128.375V18.176C130.871 14.784 134.391 12.672 138.871 12.672C145.719 12.672 150.455 17.152 150.455 25.408V47.488H141.623V28.416C141.623 23.36 139.639 20.544 135.607 20.544C132.087 20.544 129.079 23.36 129.079 28.864ZM169.769 48.064C159.529 48.064 152.681 40.96 152.681 30.272C152.681 20.096 159.785 12.672 169.641 12.672C180.457 12.672 187.625 21.44 186.025 32.576H161.769C162.345 38.144 165.033 41.216 169.577 41.216C173.481 41.216 176.105 39.296 177.129 35.904H185.961C184.041 43.648 178.089 48.064 169.769 48.064ZM169.449 19.2C165.289 19.2 162.665 21.888 161.897 26.944H176.617C176.361 22.208 173.673 19.2 169.449 19.2ZM34.88 64.312L18.24 110.84H8.57599L13.44 98.104L-9.28342e-06 64.312H9.59999L18.176 87.736L25.984 64.312H34.88ZM49.5 99.128C39.58 99.128 32.156 91.32 32.156 81.4C32.156 71.416 39.58 63.672 49.5 63.672C59.42 63.672 66.844 71.416 66.844 81.4C66.844 91.32 59.42 99.128 49.5 99.128ZM49.5 91.256C53.916 91.256 57.692 87.736 57.692 81.4C57.692 75.064 53.916 71.608 49.5 71.608C45.084 71.608 41.308 75.064 41.308 81.4C41.308 87.736 45.084 91.256 49.5 91.256ZM90.121 84.088V64.312H98.953V98.488H90.825V94.008C88.969 97.016 85.193 99.128 80.841 99.128C73.993 99.128 69.001 94.968 69.001 86.072V64.312H77.897V84.344C77.897 89.144 80.265 91.256 83.849 91.256C87.049 91.256 90.121 88.696 90.121 84.088ZM112.642 81.912V98.488H103.746V64.312H111.938V70.904C114.434 66.552 119.746 63.928 125.25 63.928V73.144C117.698 72.568 112.642 74.36 112.642 81.912ZM155.535 87.544C155.535 94.712 150.095 99.128 140.367 99.128C130.639 99.128 125.199 94.456 124.495 86.84H133.007C133.071 90.36 136.079 92.6 140.495 92.6C143.951 92.6 146.575 91.512 146.575 89.08C146.575 86.904 145.167 86.008 141.903 85.368L135.759 84.216C129.615 83.128 125.903 79.736 125.903 74.424C125.903 68.088 131.343 63.672 139.855 63.672C148.431 63.672 154.319 68.216 154.959 75.576H146.447C146.127 72.248 143.631 70.2 139.855 70.2C136.591 70.2 134.415 71.416 134.415 73.592C134.415 75.64 135.823 76.472 138.895 77.048L145.487 78.264C152.143 79.544 155.535 82.616 155.535 87.544ZM173.256 99.064C163.016 99.064 156.168 91.96 156.168 81.272C156.168 71.096 163.272 63.672 173.128 63.672C183.944 63.672 191.112 72.44 189.512 83.576H165.256C165.832 89.144 168.52 92.216 173.064 92.216C176.968 92.216 179.592 90.296 180.616 86.904H189.448C187.528 94.648 181.576 99.064 173.256 99.064ZM172.936 70.2C168.776 70.2 166.152 72.888 165.384 77.944H180.104C179.848 73.208 177.16 70.2 172.936 70.2ZM201.231 98.488H192.271V52.536H201.231V98.488ZM218.104 98.488H209.272V71.928H202.36V64.312H209.272V62.456C209.272 55.672 212.92 51.832 220.024 51.832C222.2 51.832 224.056 52.216 225.528 52.856V59.896C224.568 59.512 223.288 59.32 222.136 59.32C219.704 59.32 218.104 60.28 218.104 62.648V64.312H227V71.928H218.104V98.488ZM248.85 56.376C248.85 59.384 246.418 61.624 242.898 61.624C239.442 61.624 237.01 59.384 237.01 56.376C237.01 53.24 239.442 51 242.898 51C246.418 51 248.85 53.24 248.85 56.376ZM247.442 98.488H238.546V64.312H247.442V98.488ZM261.054 79.864V98.488H252.158V64.312H260.35V69.176C262.846 65.784 266.366 63.672 270.846 63.672C277.694 63.672 282.43 68.152 282.43 76.408V98.488H273.598V79.416C273.598 74.36 271.614 71.544 267.582 71.544C264.062 71.544 261.054 74.36 261.054 79.864ZM34.88 115.312L18.24 161.84H8.57599L13.44 149.104L-9.28342e-06 115.312H9.59999L18.176 138.736L25.984 115.312H34.88ZM49.5 150.128C39.58 150.128 32.156 142.32 32.156 132.4C32.156 122.416 39.58 114.672 49.5 114.672C59.42 114.672 66.844 122.416 66.844 132.4C66.844 142.32 59.42 150.128 49.5 150.128ZM49.5 142.256C53.916 142.256 57.692 138.736 57.692 132.4C57.692 126.064 53.916 122.608 49.5 122.608C45.084 122.608 41.308 126.064 41.308 132.4C41.308 138.736 45.084 142.256 49.5 142.256ZM90.121 135.088V115.312H98.953V149.488H90.825V145.008C88.969 148.016 85.193 150.128 80.841 150.128C73.993 150.128 69.001 145.968 69.001 137.072V115.312H77.897V135.344C77.897 140.144 80.265 142.256 83.849 142.256C87.049 142.256 90.121 139.696 90.121 135.088ZM112.642 132.912V149.488H103.746V115.312H111.938V121.904C114.434 117.552 119.746 114.928 125.25 114.928V124.144C117.698 123.568 112.642 125.36 112.642 132.912ZM157.646 135.088V115.312H166.478V149.488H158.35V145.008C156.494 148.016 152.718 150.128 148.366 150.128C141.518 150.128 136.526 145.968 136.526 137.072V115.312H145.422V135.344C145.422 140.144 147.79 142.256 151.374 142.256C154.574 142.256 157.646 139.696 157.646 135.088ZM180.167 130.864V149.488H171.271V115.312H179.463V120.176C181.959 116.784 185.479 114.672 189.959 114.672C196.807 114.672 201.543 119.152 201.543 127.408V149.488H192.711V130.416C192.711 125.36 190.727 122.544 186.695 122.544C183.175 122.544 180.167 125.36 180.167 130.864ZM216.312 107.376C216.312 110.384 213.88 112.624 210.36 112.624C206.904 112.624 204.472 110.384 204.472 107.376C204.472 104.24 206.904 102 210.36 102C213.88 102 216.312 104.24 216.312 107.376ZM214.904 149.488H206.008V115.312H214.904V149.488ZM217.381 132.4C217.381 122.352 223.333 114.672 232.549 114.672C236.965 114.672 240.677 116.72 243.365 120.304V115.312H251.493V161.84H242.661V145.072C240.101 148.4 236.645 150.128 232.549 150.128C223.333 150.128 217.381 142.512 217.381 132.4ZM226.533 132.4C226.533 138.928 230.181 142.192 234.533 142.192C238.885 142.192 242.597 138.864 242.597 132.4C242.597 125.936 238.885 122.544 234.533 122.544C230.181 122.544 226.533 126 226.533 132.4ZM277.033 135.088V115.312H285.865V149.488H277.737V145.008C275.881 148.016 272.105 150.128 267.753 150.128C260.905 150.128 255.913 145.968 255.913 137.072V115.312H264.809V135.344C264.809 140.144 267.177 142.256 270.761 142.256C273.961 142.256 277.033 139.696 277.033 135.088ZM305.506 150.064C295.266 150.064 288.418 142.96 288.418 132.272C288.418 122.096 295.522 114.672 305.378 114.672C316.194 114.672 323.362 123.44 321.762 134.576H297.506C298.082 140.144 300.77 143.216 305.314 143.216C309.218 143.216 311.842 141.296 312.866 137.904H321.698C319.778 145.648 313.826 150.064 305.506 150.064ZM305.186 121.2C301.026 121.2 298.402 123.888 297.634 128.944H312.354C312.098 124.208 309.41 121.2 305.186 121.2ZM32.128 200.488L25.664 178.28L19.264 200.488H10.368L0.639991 166.312H9.27999L15.104 187.944L21.376 166.312H30.144L36.224 187.944L41.984 166.312H50.752L40.96 200.488H32.128ZM71.1855 200.488V196.264C68.9455 199.464 65.5535 201.128 60.8815 201.128C53.7775 201.128 49.0415 196.968 49.0415 190.568C49.0415 183.912 54.4175 180.328 64.4015 180.328C66.3215 180.328 67.9855 180.456 70.0975 180.712V178.664C70.0975 174.824 67.9215 172.584 64.2095 172.584C60.3695 172.584 58.0655 174.824 57.7455 178.664H49.7455C50.2575 170.792 55.9535 165.672 64.2095 165.672C73.1695 165.672 78.4175 170.6 78.4175 178.984V200.488H71.1855ZM57.4255 190.312C57.4255 193.192 59.4735 194.984 62.8015 194.984C67.3455 194.984 70.0975 192.488 70.0975 188.52V186.088C67.9855 185.768 66.5135 185.64 64.9775 185.64C59.9215 185.64 57.4255 187.24 57.4255 190.312ZM112.48 166.312L95.84 212.84H86.176L91.04 200.104L77.6 166.312H87.2L95.776 189.736L103.584 166.312H112.48ZM119.24 194.792C119.24 198.312 116.808 200.808 113.288 200.808C109.768 200.808 107.272 198.312 107.272 194.792C107.272 191.208 109.768 188.712 113.288 188.712C116.808 188.712 119.24 191.208 119.24 194.792Z" fill="#1A1A1A"/>
</svg>
