<svg width="21" height="19" viewBox="0 0 21 19" fill="none" xmlns="http://www.w3.org/2000/svg">
<path d="M20.916 2.94512C20.8308 2.73946 20.6866 2.56368 20.5015 2.44002C20.3165 2.31636 20.0989 2.25038 19.8763 2.25043H17.2344C16.7904 1.56695 16.1842 1.00387 15.4699 0.611307C14.7556 0.218748 13.9554 0.00889532 13.1403 0.000429699C12.5045 -0.00810824 11.8733 0.110666 11.284 0.349759C10.6947 0.588852 10.1593 0.94343 9.7091 1.39262C9.24618 1.84663 8.87873 2.38864 8.62838 2.98676C8.37802 3.58488 8.24981 4.22703 8.25129 4.87543V4.94855C4.79847 3.86387 2.02816 1.11418 1.99816 1.08324C1.84721 0.93112 1.65595 0.825278 1.44688 0.778171C1.23782 0.731064 1.01965 0.744652 0.818044 0.817336C0.616439 0.89002 0.439789 1.01878 0.308881 1.18845C0.177972 1.35813 0.0982511 1.56167 0.0790989 1.77512C-0.512464 8.35355 2.39004 11.8804 4.02222 13.3176C2.66379 14.7032 0.751286 15.4392 0.732536 15.4467C0.573522 15.5059 0.429956 15.6003 0.312586 15.7228C0.195215 15.8453 0.107081 15.9928 0.0547796 16.1542C0.00247851 16.3156 -0.0126344 16.4868 0.0105722 16.6549C0.0337788 16.823 0.0947037 16.9836 0.188786 17.1248C0.376286 17.3957 1.44879 18.7504 4.87629 18.7504C11.6497 18.7504 17.3169 13.5698 17.9638 6.87887L20.6713 4.17137C20.8288 4.0141 20.9361 3.81365 20.9797 3.59537C21.0232 3.37709 21.0011 3.15079 20.916 2.94512ZM16.0813 5.58043C15.8873 5.77352 15.7709 6.03102 15.7541 6.30418C15.3894 12.022 10.6119 16.5004 4.87629 16.5004C4.48473 16.5027 4.09349 16.478 3.70535 16.4264C4.68879 15.802 5.78754 14.9132 6.56379 13.7498C6.6487 13.6224 6.70673 13.4791 6.73432 13.3285C6.76192 13.178 6.7585 13.0234 6.72427 12.8742C6.69004 12.725 6.62573 12.5843 6.53527 12.4609C6.44481 12.3374 6.3301 12.2337 6.19816 12.1561C6.18691 12.1495 5.04222 11.4539 4.0016 9.86668C2.96097 8.27949 2.38347 6.39793 2.27097 4.2623C3.87972 5.47543 6.37629 7.01199 9.18879 7.48543C9.35016 7.51271 9.51555 7.50445 9.6734 7.46122C9.83126 7.41799 9.97778 7.34085 10.1028 7.23516C10.2277 7.12947 10.3281 6.99779 10.397 6.8493C10.4658 6.70082 10.5014 6.5391 10.5013 6.37543V4.87543C10.5005 4.52506 10.5698 4.17807 10.7052 3.85492C10.8407 3.53177 11.0394 3.239 11.2897 2.99387C11.5288 2.75471 11.8133 2.56575 12.1264 2.43808C12.4395 2.31041 12.775 2.24661 13.1132 2.25043C13.6244 2.25727 14.1232 2.40898 14.5516 2.68793C14.9801 2.96688 15.3207 3.36163 15.5338 3.82637C15.6215 4.02684 15.7658 4.19739 15.9489 4.31711C16.1321 4.43684 16.3462 4.50054 16.565 4.50043H17.1575L16.0813 5.58043Z" fill="#1A1A1A"/>
</svg>
