<svg width="21" height="18" viewBox="0 0 21 18" fill="none" xmlns="http://www.w3.org/2000/svg">
<path d="M18.375 0H1.875C1.37772 0 0.900805 0.197544 0.549175 0.549175C0.197544 0.900805 0 1.37772 0 1.875V15.375C0 15.8723 0.197544 16.3492 0.549175 16.7008C0.900805 17.0525 1.37772 17.25 1.875 17.25H18.375C18.8723 17.25 19.3492 17.0525 19.7008 16.7008C20.0525 16.3492 20.25 15.8723 20.25 15.375V1.875C20.25 1.37772 20.0525 0.900805 19.7008 0.549175C19.3492 0.197544 18.8723 0 18.375 0ZM18 2.25V4.5H2.25V2.25H18ZM2.25 15V6.75H18V15H2.25Z" fill="#1A1A1A"/>
</svg>
