<svg width="21" height="21" viewBox="0 0 21 21" fill="none" xmlns="http://www.w3.org/2000/svg">
<path d="M15.6888 13.0253C15.5343 13.7896 15.1206 14.4772 14.5175 14.9715C13.9145 15.4659 13.1592 15.7368 12.3794 15.7384C10.2915 15.7362 8.28981 14.9058 6.81344 13.4294C5.33708 11.9531 4.50668 9.95134 4.50444 7.86344C4.50606 7.08366 4.77697 6.32837 5.27135 5.72534C5.76574 5.12231 6.45324 4.70855 7.21757 4.55407C7.45919 4.50625 7.70983 4.53906 7.93101 4.64745C8.15219 4.75584 8.33169 4.93382 8.44194 5.15407L9.51819 7.31032C9.60646 7.48745 9.64644 7.68474 9.6341 7.88226C9.62175 8.07978 9.55752 8.27055 9.44788 8.43532L8.64913 9.63344C9.06038 10.491 9.75192 11.1825 10.6094 11.5938L11.8076 10.795C11.9723 10.6854 12.1631 10.6211 12.3606 10.6088C12.5581 10.5964 12.7554 10.6364 12.9326 10.7247L15.0888 11.8009C15.3091 11.9112 15.4871 12.0907 15.5954 12.3119C15.7038 12.5331 15.7366 12.7837 15.6888 13.0253ZM20.2544 10.1134C20.2548 11.8478 19.8097 13.5531 18.9617 15.066C18.1137 16.5789 16.8913 17.8487 15.4117 18.7535C13.9321 19.6583 12.2449 20.1679 10.5118 20.2334C8.77868 20.2989 7.05781 19.9181 5.51413 19.1275L2.47382 20.1447C2.14284 20.2562 1.78729 20.2731 1.44724 20.1934C1.10718 20.1138 0.796143 19.9407 0.549175 19.6937C0.302207 19.4467 0.129128 19.1357 0.049447 18.7956C-0.0302344 18.4556 -0.0133512 18.1 0.0981937 17.7691L1.11163 14.7288C0.415716 13.3656 0.0378932 11.8624 0.00657085 10.3322C-0.0247515 8.80201 0.291241 7.28462 0.930791 5.89413C1.57034 4.50363 2.5168 3.27622 3.69902 2.30418C4.88123 1.33214 6.26844 0.640767 7.75632 0.282039C9.24421 -0.0766895 10.7941 -0.0934348 12.2894 0.233062C13.7846 0.559559 15.1865 1.2208 16.3894 2.16707C17.5923 3.11334 18.5651 4.32001 19.2345 5.69636C19.904 7.07271 20.2527 8.58292 20.2544 10.1134ZM18.0044 10.1134C18.004 8.90551 17.7257 7.71388 17.191 6.63073C16.6563 5.54757 15.8796 4.60193 14.9211 3.86696C13.9625 3.13199 12.8476 2.62738 11.6628 2.39218C10.478 2.15698 9.25498 2.19748 8.08833 2.51057C6.92168 2.82365 5.84269 3.40091 4.93483 4.1977C4.02696 4.99449 3.31456 5.98945 2.85274 7.10561C2.39091 8.22177 2.19204 9.4292 2.2715 10.6345C2.35097 11.8398 2.70664 13.0107 3.31101 14.0566C3.39088 14.1945 3.44055 14.3478 3.45671 14.5063C3.47287 14.6649 3.45516 14.8251 3.40476 14.9763L2.47382 17.7691L5.26663 16.8381C5.38152 16.7999 5.50179 16.7802 5.62288 16.78C5.82046 16.7804 6.01447 16.8327 6.18538 16.9319C7.38259 17.6246 8.74114 17.9898 10.1243 17.9907C11.5075 17.9916 12.8665 17.6282 14.0646 16.937C15.2628 16.2458 16.2577 15.2512 16.9493 14.0534C17.6409 12.8555 18.0048 11.4966 18.0044 10.1134Z" fill="#1A1A1A"/>
</svg>
